<svg xmlns="http://www.w3.org/2000/svg" width="500" height="362" viewBox="0 0 500 362" version="1.1"><path d="" stroke="none" fill="red" fill-rule="evenodd"/><path d="M 324.500 18.997 C 300.906 21.369, 270.610 35.787, 251.886 53.555 L 246.272 58.883 236.701 58.909 C 213.832 58.971, 197.316 69.964, 185.593 92.925 C 181.136 101.654, 171 125.721, 171 127.573 C 171 127.853, 168.785 133.801, 166.077 140.791 C 163.370 147.781, 160.418 156.136, 159.518 159.357 C 158.618 162.579, 157.715 165.048, 157.511 164.845 C 157.027 164.360, 159.916 74.135, 160.503 71.421 C 160.750 70.278, 162.088 68.825, 163.476 68.193 C 164.963 67.515, 166 66.212, 166 65.021 C 166 63.156, 165.364 63, 157.750 63.005 C 147.481 63.010, 125.337 66.242, 117.978 68.809 C 95.037 76.812, 80.317 91.468, 71.376 115.211 C 67.603 125.230, 67.501 125.841, 67.501 138.500 C 67.500 153.125, 68.200 155.335, 74.626 160.977 C 79.798 165.517, 83.895 167, 91.272 167 C 107.049 167, 121.502 151.553, 119.480 136.852 C 118.439 129.282, 113.212 124.630, 110.041 128.450 C 109.111 129.571, 109.102 131.176, 110.003 135.515 C 112.417 147.144, 107.339 156.553, 97.370 158.923 C 90.644 160.521, 85.657 159.181, 80.809 154.472 C 75.778 149.585, 74.608 145.475, 75.285 135.072 C 76.334 118.967, 82.235 106.326, 94.493 93.925 C 104.680 83.618, 120.804 74.521, 131.033 73.310 L 135.845 72.740 135.418 76.620 C 135.183 78.754, 134.303 86.800, 133.463 94.500 C 132.623 102.200, 129.969 117.500, 127.565 128.500 C 125.161 139.500, 122.894 150.750, 122.526 153.500 C 121.894 158.230, 118.759 174.878, 111.887 210 C 105.819 241.013, 101.763 253.178, 95.568 258.955 C 92.392 261.916, 83.045 262.897, 76.020 261.005 C 65.545 258.185, 58.583 244.027, 64.290 237.150 C 64.912 236.402, 67.750 234.759, 70.598 233.499 C 74.807 231.638, 75.993 230.551, 76.937 227.690 C 79.258 220.658, 74.209 214.229, 65.604 213.259 C 56.949 212.283, 51.658 215.785, 46.355 226 C 44.003 230.532, 43.503 232.732, 43.516 238.500 C 43.530 244.357, 44.015 246.375, 46.484 250.859 C 52.270 261.363, 64.475 268.792, 77.709 269.867 L 85.500 270.500 85.142 280.217 C 84.506 297.516, 88.901 309.009, 100.620 320.687 C 113.449 333.472, 132.134 340.756, 154.500 341.693 C 172.684 342.455, 186.975 338.989, 207.206 328.910 C 218.870 323.099, 243.414 305.666, 250 298.515 C 251.375 297.022, 254.075 294.548, 256 293.016 L 259.500 290.230 259.545 301.865 C 259.585 312.320, 259.877 314.191, 262.426 320.314 C 268.448 334.774, 281.892 344.381, 300.796 347.731 C 308.809 349.152, 311.133 349.201, 317.789 348.092 C 339.942 344.401, 359.962 330.721, 375.851 308.416 C 393.324 283.887, 396.833 268.924, 403.036 192.500 C 403.482 187, 405.438 167.200, 407.382 148.500 C 409.326 129.800, 411.435 107.525, 412.069 99 C 412.702 90.475, 413.515 81.737, 413.874 79.582 L 414.527 75.664 424.514 73.905 C 443.521 70.557, 453.612 65.971, 460.518 57.544 C 465.153 51.887, 467.001 47.104, 466.994 40.782 C 466.983 30.079, 463.065 23, 457.152 23 C 453.017 23, 452.479 25.435, 455.481 30.558 C 458.399 35.537, 458.931 44.323, 456.585 48.800 C 454.340 53.086, 448.957 57.683, 442.991 60.409 C 436.902 63.191, 424.920 66, 419.143 66 C 415.613 66, 415.272 65.706, 412.678 60.417 C 403.832 42.380, 387.138 29.426, 363.698 22.410 C 350.429 18.438, 339.513 17.488, 324.500 18.997 M 319 27.554 C 309.844 29.518, 298.918 33.520, 289 38.541 C 278.400 43.907, 258.598 57.158, 258.213 59.143 C 258.033 60.073, 259.780 61.492, 262.916 62.961 C 272.966 67.668, 280.911 78.879, 281.801 89.608 C 282.169 94.055, 281.945 95.084, 280.487 95.644 C 277.735 96.699, 275.796 94.810, 273.898 89.225 C 270.365 78.832, 262.981 71.002, 254.228 68.368 C 248.631 66.684, 246.702 67.665, 241.903 74.641 C 235.157 84.446, 235.010 85.320, 229.472 148.500 C 228.074 164.450, 226.034 185.590, 224.938 195.477 C 222.431 218.100, 222.255 230.684, 224.416 232.845 C 227.078 235.506, 232.571 234.798, 236.246 231.320 C 240.379 227.408, 243.429 225.844, 245.428 226.611 C 247.982 227.591, 247.262 229.759, 242.750 234.673 C 236.239 241.764, 232.729 242.952, 218.205 242.978 C 206.469 242.999, 205.797 242.888, 203.455 240.545 C 201.200 238.291, 201 237.333, 201.002 228.795 C 201.003 223.683, 201.653 212.975, 202.446 205 C 204.679 182.531, 206.132 159.023, 205.365 157.781 C 203.886 155.389, 201.228 165.804, 197.513 188.544 C 196.079 197.320, 194.050 207.875, 193.003 212 C 191.956 216.125, 190.187 224.591, 189.070 230.813 C 187.954 237.035, 186.780 242.547, 186.461 243.063 C 185.475 244.658, 181.119 244.095, 180.178 242.250 C 178.805 239.556, 187.349 190.843, 192.938 169.500 C 193.946 165.650, 195.549 158.900, 196.499 154.500 C 198.261 146.342, 206.263 123.397, 211.964 110.157 C 215.712 101.452, 223.742 86.251, 229.718 76.546 C 232.073 72.721, 234 69.171, 234 68.657 C 234 66.811, 221.936 68.797, 216.193 71.589 C 209.086 75.044, 200.268 83.893, 195.661 92.193 C 182.094 116.639, 168.745 153.381, 157.037 198.500 C 154.433 208.536, 149.815 224.790, 143.684 245.500 C 142.614 249.114, 142.151 249.529, 138.877 249.803 C 136.579 249.995, 135.080 249.629, 134.777 248.803 C 134.515 248.086, 134.638 239.850, 135.051 230.500 C 136.492 197.895, 137.220 137.589, 136.206 135 C 135.264 132.599, 135.197 132.658, 134.501 136.500 C 131.352 153.894, 127.733 172.248, 126.533 176.908 C 125.741 179.984, 123.712 191.050, 122.024 201.500 C 119.438 217.510, 113.438 245.089, 111.369 250.482 C 110.997 251.451, 111.367 252, 112.393 252 C 117.014 252, 110.836 260.191, 102.418 265.227 C 95.475 269.379, 94.500 271.822, 94.500 285.052 C 94.500 295.113, 94.662 295.923, 97.968 302.436 C 107.734 321.677, 121.696 329.483, 153.500 333.485 C 159.509 334.242, 177.368 331.747, 186.803 328.835 C 205.834 322.959, 232.410 304.666, 259.969 278.472 C 271.152 267.843, 275.508 264.386, 283.061 260.145 C 293.948 254.032, 298.996 252.849, 317.686 252.033 C 334.566 251.296, 335.003 251.221, 342.258 247.775 C 351.349 243.458, 366.626 229.330, 373.522 218.862 C 378.072 211.955, 378.123 211.785, 379.488 198.698 C 381.232 181.994, 382.427 169.362, 385.523 134.918 C 386.886 119.748, 388.668 102.648, 389.483 96.918 C 391.216 84.721, 391.422 75.379, 389.976 74.485 C 389.413 74.137, 383.226 73.171, 376.226 72.338 C 357.308 70.085, 344.298 71.613, 330.797 77.671 C 323.993 80.725, 315.876 88.816, 314.042 94.373 C 312.184 100.002, 313.059 111.257, 315.623 114.718 C 320.528 121.339, 328.138 123.862, 331.890 120.110 C 333.385 118.615, 333.671 117.262, 333.260 113.618 C 332.645 108.160, 334.017 106, 338.099 106 C 341.989 106, 344.338 109.790, 344.429 116.211 C 344.495 120.842, 344.199 121.487, 340.564 124.629 C 329.155 134.496, 314.136 130.965, 307.030 116.745 C 304.560 111.800, 304 109.441, 304 103.966 C 304 86.746, 314.762 73.805, 334.500 67.291 C 341.788 64.885, 343.968 64.644, 359 64.575 C 368.075 64.534, 381.971 65.094, 389.880 65.820 C 397.805 66.547, 404.643 66.757, 405.112 66.288 C 406.697 64.703, 401.584 56.543, 394.091 48.700 C 387.748 42.061, 385.139 40.165, 376.569 35.971 C 357.789 26.779, 336.867 23.720, 319 27.554 M 40.341 124.555 C 38.858 128.418, 40.740 140.554, 43.821 147 C 45.530 150.575, 48.552 157.550, 50.535 162.500 C 52.519 167.450, 54.376 172.042, 54.661 172.705 C 55.015 173.528, 53.867 173.394, 51.039 172.283 C 47.472 170.882, 45.852 170.820, 39.322 171.835 C 26.853 173.774, 23.509 176.536, 28.194 181.030 C 32.465 185.126, 40.007 187.980, 46.590 187.990 C 51.396 187.998, 53.972 187.354, 58.803 184.941 L 64.926 181.881 73.121 185.941 C 80.921 189.804, 87 191.150, 87 189.014 C 87 188.472, 84.396 186.714, 81.213 185.108 C 73.607 181.268, 67.906 174.950, 64.906 167.037 C 62.317 160.208, 56.851 153.356, 54.936 154.539 C 54.298 154.934, 53.384 154.636, 52.904 153.878 C 51.203 151.193, 52.060 146.465, 55.046 142.058 C 58.220 137.373, 61.374 128.181, 60.811 125.257 C 60.253 122.359, 57.643 122.758, 53.402 126.388 L 49.371 129.838 46.643 126.419 C 43.720 122.756, 41.305 122.041, 40.341 124.555 M 279.084 134.645 C 272.068 138.141, 267.888 142.498, 265.745 148.547 C 262.471 157.787, 263.982 165.275, 271.317 176.156 L 273.107 178.813 268.425 184.084 C 261.683 191.675, 259.022 197.955, 259.010 206.300 C 258.999 214.054, 260.439 217.641, 265.819 223.256 C 270.496 228.137, 278.151 231, 286.527 231 C 294.189 231, 300.926 228.677, 307.996 223.599 C 310.751 221.619, 313.412 220, 313.910 220 C 314.408 220, 317.074 221.172, 319.835 222.604 C 325.979 225.792, 334.735 226.228, 339.812 223.599 C 345.127 220.847, 343.743 218.621, 336.273 217.905 C 331.943 217.490, 328.849 216.504, 326.034 214.641 C 323.815 213.173, 322 211.728, 322 211.431 C 322 211.134, 322.991 208.777, 324.202 206.195 C 325.709 202.982, 326.531 198.976, 326.807 193.500 C 327.029 189.100, 327.629 184.985, 328.141 184.355 C 328.653 183.725, 330.585 182.925, 332.435 182.578 C 337.116 181.700, 338.873 179.441, 336.618 177.200 C 335.251 175.841, 333.259 175.537, 326.690 175.685 C 316.413 175.917, 312.741 177.158, 313.181 180.252 C 313.381 181.664, 314.709 183.032, 316.750 183.930 C 319.868 185.303, 319.998 185.587, 319.946 190.930 C 319.889 196.714, 317.317 205.063, 315.395 205.702 C 314.201 206.100, 291 181.683, 291 180.030 C 291 179.479, 293.813 177.618, 297.250 175.894 C 305.122 171.946, 313.250 165.100, 315.370 160.633 C 317.237 156.699, 317.487 150.423, 315.940 146.315 C 314.433 142.310, 308.192 136.083, 303.500 133.903 C 297.150 130.952, 285.804 131.297, 279.084 134.645 M 284.001 141.123 C 278.265 143.411, 274 149.565, 274 155.555 C 274 159.201, 277.747 167.933, 280.734 171.250 C 283.055 173.827, 284.753 173.461, 293.071 168.593 C 301.323 163.762, 308 157.183, 308 153.883 C 308 149.934, 303.821 144.092, 299.500 142 C 295.085 139.863, 288.147 139.470, 284.001 141.123 M 439.046 150.121 C 430.206 157.508, 428.587 161.202, 429.309 172.344 C 429.775 179.535, 429.577 181.715, 428.280 183.696 C 426.203 186.865, 416.807 193.190, 410.814 195.453 C 405.601 197.422, 404.509 198.946, 406.431 201.575 C 407.661 203.256, 407.993 203.235, 413.129 201.151 C 416.101 199.944, 420.551 197.619, 423.017 195.983 C 425.482 194.347, 427.965 193.007, 428.534 193.004 C 429.102 193.002, 431.986 194.558, 434.942 196.462 C 441.188 200.487, 447.534 201.756, 453.091 200.091 C 458.364 198.511, 469 192.075, 469 190.465 C 469 188.891, 463.883 185.685, 458.758 184.047 C 453.549 182.381, 443.318 182.546, 438.250 184.376 C 435.913 185.221, 434 185.519, 434 185.040 C 434 183.934, 440.552 178.758, 444.521 176.730 C 450.354 173.748, 459 162.964, 459 158.670 C 459 157.207, 457.672 158.114, 453.586 162.366 C 448.449 167.712, 446 169.212, 446 167.011 C 446 166.467, 446.932 162.625, 448.071 158.473 C 450.397 149.994, 450.003 145, 447.008 145 C 446 145, 442.417 147.305, 439.046 150.121 M 276.439 188.750 C 272.331 193.026, 270.046 198.846, 270.022 205.100 C 270.004 209.717, 270.511 211.405, 272.910 214.717 C 275.964 218.933, 282.926 223.004, 287.066 222.994 C 292.905 222.981, 307 216.500, 307 213.828 C 307 212.297, 281.833 186, 280.368 186 C 279.660 186, 277.892 187.238, 276.439 188.750 M 434.439 227.349 C 432.756 228.116, 429.768 230.683, 427.801 233.051 C 424.362 237.191, 423.940 237.389, 416.956 238.135 C 405.044 239.408, 405.412 241.085, 418 242.886 C 421.575 243.398, 425.738 244.297, 427.250 244.884 C 429.792 245.870, 430 246.371, 430 251.504 C 430 255.666, 430.739 258.521, 432.951 262.903 C 436.276 269.490, 438.410 270.971, 440.081 267.848 C 441.258 265.649, 440.536 257.871, 438.866 254.750 C 437.724 252.616, 439.250 252.392, 440.953 254.444 C 442.793 256.661, 454.960 260.440, 456.216 259.184 C 460.594 254.806, 446.106 241, 437.133 241 C 435.545 241, 433.708 240.353, 433.051 239.562 C 432.059 238.366, 432.588 237.922, 436.179 236.936 C 448.045 233.676, 453.686 230.286, 451.269 227.869 C 449.515 226.115, 437.930 225.757, 434.439 227.349 M 367.469 238.077 C 359.874 245.809, 350.746 253.103, 345.063 255.983 C 339.019 259.046, 327.628 260.923, 314.839 260.965 C 289.983 261.046, 274.686 272.231, 269.832 293.870 C 268.329 300.573, 269.894 312.912, 273.027 319.052 C 280.136 332.988, 294.389 339.838, 314.015 338.750 C 337.784 337.432, 357.521 317.823, 366.873 286.232 C 370.221 274.921, 371.604 266.935, 372.971 251 C 373.513 244.675, 374.251 237.813, 374.610 235.750 C 374.969 233.681, 374.853 232, 374.350 232 C 373.848 232, 370.751 234.734, 367.469 238.077" stroke="none" fill="#cda564" fill-rule="evenodd"/></svg>